<?xml version="1.0" standalone="no"?>
<!DOCTYPE svg PUBLIC "-//W3C//DTD SVG 20010904//EN"
 "http://www.w3.org/TR/2001/REC-SVG-20010904/DTD/svg10.dtd">
<svg version="1.0" xmlns="http://www.w3.org/2000/svg"
 width="200.000000pt" height="200.000000pt" viewBox="0 0 200.000000 200.000000"
 preserveAspectRatio="xMidYMid meet">

<g transform="translate(0.000000,200.000000) scale(0.100000,-0.100000)"
fill="#000000" stroke="none">
<path d="M881 1989 c-152 -18 -324 -82 -447 -167 -77 -52 -204 -178 -253 -250
-175 -258 -225 -578 -135 -862 104 -330 334 -560 664 -664 283 -90 606 -39
860 134 65 44 212 194 259 263 43 64 93 172 124 274 50 156 54 358 11 528 -19
75 -23 81 -287 397 l-188 226 -81 37 c-158 72 -360 104 -527 84z m447 -881
l-3 -313 -55 0 -55 0 0 295 0 294 45 18 c25 9 51 17 58 17 10 1 12 -65 10
-311z m-270 123 c53 -27 97 -87 111 -151 23 -106 -30 -210 -133 -262 -32 -16
-53 -19 -110 -16 -39 3 -79 8 -88 12 -16 7 -18 1 -18 -62 l0 -71 -52 -19 -53
-20 -3 306 c-1 168 0 307 3 310 2 3 25 -3 49 -12 36 -14 49 -15 67 -6 31 17
108 27 149 20 19 -4 54 -17 78 -29z m610 24 c102 -31 166 -115 165 -220 0 -72
-19 -120 -65 -167 -105 -104 -269 -94 -353 21 -97 133 -45 310 107 362 65 23
81 23 146 4z m-1178 -11 c36 -15 44 -15 87 0 47 16 47 16 74 -10 l27 -26 -43
-90 -43 -90 41 -95 41 -96 -26 -22 c-26 -22 -28 -22 -90 -8 -56 13 -66 13 -96
-1 -46 -22 -99 -20 -157 8 -184 85 -184 343 0 427 50 23 132 24 185 3z"/>
<path d="M901 1137 c-89 -31 -101 -161 -19 -203 49 -25 96 -18 134 20 87 87 1
222 -115 183z"/>
<path d="M1527 1120 c-30 -23 -47 -74 -40 -114 8 -42 66 -86 114 -86 33 0 47
6 75 34 47 47 48 100 3 151 -27 31 -37 35 -79 35 -33 0 -55 -6 -73 -20z"/>
<path d="M321 1105 c-25 -29 -31 -45 -31 -80 0 -132 175 -155 219 -29 12 36
12 44 -4 77 -21 45 -59 67 -113 67 -33 0 -45 -6 -71 -35z"/>
</g>
</svg>
